# xmcd
#
# Track frame offsets:
#	150
#	17987
#	34015
#	45397
#	61582
#	78867
#	89650
#	105490
#	125790
#	142407
#	164197
#	180670
#
# Disc length: 2818 seconds
# Revision: 5
# Processed by: cddbd v1.5.2PL0 Copyright (c) Steve Scherf et al.
# Submitted via: dBpowerAMP V12.0
#
DISCID=a50b000c
DTITLE=Charlie Musselwhite - Rough News
DYEAR=1997
DGENRE=Blues
TTITLE0=Both Sides Of The Fence
TTITLE1=I Sat and Cried
TTITLE2=Sleepwalk
TTITLE3=Natural Born Lover
TTITLE4=Darkest Hour
TTITLE5=Harlem Nocturne
TTITLE6=Drifting Boy
TTITLE7=Rough Dried Woman
TTITLE8=Feel It In Your Heart
TTITLE9=Rainy Highway
TTITLE10=Clarksdale Boogie
TTITLE11=Rough News
EXTD=
EXTT0=
EXTT1=
EXTT2=
EXTT3=
EXTT4=
EXTT5=
EXTT6=
EXTT7=
EXTT8=
EXTT9=
EXTT10=
EXTT11=
PLAYORDER=
